<?xml version="1.0" standalone="no"?>
<!DOCTYPE svg PUBLIC "-//W3C//DTD SVG 20010904//EN"
 "http://www.w3.org/TR/2001/REC-SVG-20010904/DTD/svg10.dtd">
<svg version="1.0" xmlns="http://www.w3.org/2000/svg"
 width="2732.000000pt" height="2732.000000pt" viewBox="0 0 2732.000000 2732.000000"
 preserveAspectRatio="xMidYMid meet">
<metadata>
Created by potrace 1.15, written by Peter Selinger 2001-2017
</metadata>
<g transform="translate(0.000000,2732.000000) scale(0.100000,-0.100000)"
fill="#000000" stroke="none">
<path d="M0 13660 l0 -13660 13660 0 13660 0 0 13660 0 13660 -13660 0 -13660
0 0 -13660z m11036 2109 c191 -33 359 -124 495 -265 81 -85 119 -140 169 -246
87 -182 93 -252 87 -1016 -3 -531 -6 -616 -21 -682 -78 -334 -342 -600 -687
-692 l-84 -22 -1217 -3 -1218 -4 0 911 0 910 345 0 345 0 0 -565 0 -566 833 3
c637 3 841 6 869 16 52 18 97 59 119 107 17 37 19 80 19 656 l0 617 -28 53
c-22 42 -38 58 -77 79 l-49 25 -1188 3 -1188 2 0 345 0 345 1208 0 c800 0
1228 -4 1268 -11z m7754 -334 l0 -345 -1163 0 c-1293 0 -1233 3 -1302 -65 -66
-66 -66 -71 -63 -736 3 -586 3 -595 25 -634 28 -53 59 -80 113 -102 42 -17
119 -18 1218 -21 l1172 -2 0 -346 0 -345 -1227 3 -1228 3 -80 22 c-315 88
-552 320 -652 639 l-28 89 0 715 c0 710 0 716 22 795 79 282 280 508 543 614
155 62 100 59 1433 60 l1217 1 0 -345z m-4145 307 c324 -92 567 -340 632 -645
23 -110 14 -291 -20 -385 -52 -147 -156 -279 -290 -366 l-75 -49 61 -40 c76
-49 180 -153 232 -231 93 -142 126 -282 106 -445 -15 -126 -34 -188 -88 -293
-122 -237 -358 -404 -633 -448 -42 -6 -566 -10 -1479 -10 l-1415 0 81 83 c163
168 261 353 314 595 20 90 22 132 26 614 l5 518 1141 2 1142 3 40 22 c165 89
186 288 41 378 l-49 30 -1169 3 c-916 2 -1170 5 -1173 15 -2 6 -15 54 -30 106
-51 184 -149 354 -284 494 l-75 77 1440 -2 1439 -3 80 -23z m-5188 -3229 c55
-30 107 -84 135 -142 19 -39 23 -62 23 -146 0 -89 -3 -106 -27 -151 -30 -57
-91 -117 -141 -138 -24 -10 -96 -15 -258 -18 -214 -3 -226 -5 -274 -28 -39
-19 -55 -35 -73 -70 l-22 -45 375 -3 375 -2 0 -120 0 -120 -505 0 -505 0 0
118 c0 185 30 280 118 374 50 54 136 99 220 117 29 6 140 11 245 11 226 0 237
3 237 75 0 78 16 75 -401 75 l-369 0 0 121 0 120 403 -3 c394 -3 403 -3 444
-25z m1153 -258 l0 -285 164 -2 164 -3 -85 -117 -84 -118 -80 0 -79 0 0 -100
0 -100 -120 0 -120 0 0 100 0 100 -327 2 -328 3 1 113 1 114 289 289 289 289
157 0 158 0 0 -285z m1075 258 c-9 -16 -150 -242 -313 -503 l-297 -475 -157
-3 c-87 -1 -158 1 -158 6 0 5 19 38 41 73 23 35 167 259 321 497 l280 432 149
0 150 0 -16 -27z m1285 21 c0 -3 -141 -230 -312 -505 l-313 -499 -159 0 c-123
0 -157 3 -153 13 2 7 115 180 250 385 l246 372 -434 0 -434 0 72 120 72 120
582 0 c321 0 583 -3 583 -6z m5820 -504 l0 -500 -3045 0 c-1806 0 -3045 4
-3045 9 0 9 104 190 517 899 l54 92 2760 0 2759 0 0 -500z"/>
<path d="M12790 13735 l0 -215 790 0 c878 0 829 -4 903 68 52 50 73 124 57
192 -16 66 -59 123 -112 149 -44 21 -48 21 -841 21 l-797 0 0 -215z"/>
<path d="M10193 12136 l-172 -161 171 -3 c94 -1 173 -1 175 1 2 2 2 76 1 164
l-3 161 -172 -162z"/>
<path d="M13470 12025 l0 -335 80 0 80 0 0 260 c0 241 1 260 18 260 37 0 83
-44 252 -242 96 -113 191 -217 211 -231 48 -35 103 -46 222 -47 l97 0 0 335 0
335 -80 0 -80 0 0 -260 c0 -182 -3 -260 -11 -260 -39 0 -92 49 -258 240 -100
115 -196 220 -214 233 -50 38 -92 47 -208 47 l-109 0 0 -335z"/>
<path d="M14775 12345 c-54 -19 -92 -64 -100 -117 -4 -24 -5 -129 -3 -233 3
-217 11 -241 83 -279 38 -20 56 -21 448 -24 l407 -3 0 75 0 76 -371 0 c-236 0
-377 4 -390 10 -14 8 -19 21 -19 55 l0 45 390 0 390 0 0 75 0 75 -387 2 -388
3 -3 38 c-6 70 -21 67 399 67 l379 0 0 75 0 75 -397 0 c-317 -1 -406 -4 -438
-15z"/>
<path d="M15820 12347 c0 -7 31 -145 69 -307 86 -363 74 -345 229 -345 157 0
148 -9 263 280 l93 236 30 -3 c30 -3 32 -7 117 -223 48 -121 94 -231 104 -244
26 -35 76 -51 161 -51 82 0 130 16 152 50 9 15 152 593 152 616 0 2 -38 4 -85
4 -80 0 -85 -1 -90 -22 -3 -13 -25 -124 -50 -247 -25 -123 -50 -230 -56 -237
-15 -18 -53 -18 -69 0 -6 8 -53 124 -104 258 l-92 243 -140 3 -140 3 -94 -247
c-51 -135 -100 -252 -107 -260 -18 -18 -48 -18 -65 -1 -7 8 -35 125 -62 260
l-49 247 -83 0 c-63 0 -84 -3 -84 -13z"/>
<path d="M17497 12346 c-81 -29 -97 -62 -97 -199 0 -92 3 -108 22 -132 45 -57
62 -60 433 -65 l340 -5 3 -44 c2 -28 -1 -47 -10 -52 -7 -5 -183 -9 -390 -9
l-378 0 0 -76 0 -75 408 3 c384 3 409 4 446 23 70 35 81 61 81 183 0 89 -3
112 -19 135 -41 60 -48 62 -426 67 l-345 5 0 50 0 50 388 3 387 2 0 75 0 75
-402 0 c-311 -1 -412 -4 -441 -14z"/>
</g>
</svg>
